PathFileType	4	(X/Y/Z)	./resultDataOpenSim/trcMotMarkerGrf/sub09/qtm-04-03.trc
DataRate	CameraRate	NumFrames	NumMarkers	Units	OrigDataRate	OrigDataStartFrame	OrigNumFrames
250.000000	250.000000	7	24	m	250.000000	369	491
Frame#	Time	L.Toe.Tip			R.Toe.Tip			L.Ankle.Lat			R.Ankle.Lat			L.Ankle.Med			R.Ankle.Med			L.Heel			R.Heel			L.Knee.Lat			R.Knee.Lat			L.Knee.Med			R.Knee.Med			L.Thigh.Upper			R.Thigh.Upper			L.ASIS			R.ASIS			V.Sacral			L.Acromium			R.Acromium			C7			L.Elbow			R.Elbow			L.Wrist.Lat			R.Wrist.Lat
		X1	Y1	Z1	X2	Y2	Z2	X3	Y3	Z3	X4	Y4	Z4	X5	Y5	Z5	X6	Y6	Z6	X7	Y7	Z7	X8	Y8	Z8	X9	Y9	Z9	X10	Y10	Z10	X11	Y11	Z11	X12	Y12	Z12	X13	Y13	Z13	X14	Y14	Z14	X15	Y15	Z15	X16	Y16	Z16	X17	Y17	Z17	X18	Y18	Z18	X19	Y19	Z19	X20	Y20	Z20	X21	Y21	Z21	X22	Y22	Z22	X23	Y23	Z23	X24	Y24	Z24

369	1.472	0.85404464	0.14555028	-0.00032872033	1.1198525	0.040029406	0.12344766	0.8030046	0.29302771	-0.031339647	0.97344719	0.057341065	0.1561665	0.82864631	0.27857301	0.063333171	0.98380601	0.096859248	0.064894777	0.73369679	0.32690451	0.017106147	0.90269427	0.040510313	0.10675328	1.1449591	0.5054463	-0.058948269	1.0822731	0.50002202	0.22235743	1.154327	0.49404683	0.069120239	1.0622953	0.49185907	0.096660374	0.99625796	0.88983227	-0.078775316	1.0007933	0.90040058	0.29223334	1.072236	0.97318216	-0.019776415	1.0850613	0.9827595	0.21674131	0.91423499	1.0413597	0.10107199	1.090493	1.425952	-0.083314008	1.0831404	1.4483743	0.24794459	1.0134837	1.4857723	0.079787588	0.95623992	1.0771178	-0.11844135	0.93211219	1.1127491	0.34259461	1.1037487	0.85847418	-0.1535972	1.1106734	0.89826762	0.33071804
370	1.476	0.87272644	0.14323939	-0.001408848	1.1199338	0.039999056	0.12342791	0.81710529	0.28876947	-0.031591318	0.97354873	0.057666664	0.15607943	0.84305089	0.27469783	0.062993643	0.98410365	0.097235828	0.064872139	0.74665382	0.32059801	0.017051944	0.90285674	0.041007115	0.10654249	1.1549979	0.50829147	-0.05902665	1.0837835	0.50012102	0.22264106	1.1627122	0.49693699	0.0683516	1.0636954	0.49202326	0.09686575	1.0024197	0.89130228	-0.078785424	1.0048064	0.90110849	0.29256709	1.0779508	0.97467803	-0.019634806	1.0904461	0.98364169	0.2169436	0.92019759	1.0422065	0.10107183	1.0952106	1.4270945	-0.083447514	1.0884967	1.449655	0.24793793	1.0184826	1.486897	0.079846599	0.9603462	1.0786977	-0.11822463	0.93788386	1.1137143	0.34283797	1.1055896	0.85895013	-0.15485021	1.1176036	0.90022471	0.32984059
371	1.48	0.89138983	0.14072659	-0.002359834	1.1200081	0.039968992	0.12340729	0.83141663	0.28423949	-0.031911958	0.97368629	0.058013602	0.155953	0.85752012	0.27059246	0.062731522	0.98436322	0.097622777	0.064871936	0.75973138	0.31392488	0.01696398	0.90302177	0.041544254	0.10628485	1.1650925	0.51101386	-0.05905307	1.0852235	0.50021725	0.22295161	1.1711502	0.49974709	0.06764278	1.0651256	0.49219507	0.09707523	1.0088628	0.89267405	-0.078583515	1.0080082	0.90175121	0.2931802	1.0836505	0.9761044	-0.019497599	1.0958127	0.98447368	0.21714198	0.92585834	1.0430428	0.10113253	1.0999401	1.4281978	-0.083605795	1.093848	1.4508739	0.24795352	1.0234823	1.4879789	0.079913023	0.96447354	1.0802228	-0.11808518	0.94366364	1.1146152	0.34307984	1.1074394	0.85941009	-0.15610054	1.124507	0.90210274	0.32897206
372	1.484	0.91001201	0.13805679	-0.0031721174	1.1200863	0.03994662	0.12337905	0.84585649	0.27948712	-0.032233033	0.97383109	0.058386526	0.1558048	0.87233861	0.26628585	0.062430121	0.98465426	0.098010828	0.064844431	0.77292122	0.30690753	0.016902251	0.90320189	0.042128963	0.1060195	1.1751206	0.51364866	-0.059060959	1.086581	0.50031147	0.22327333	1.1797255	0.50242004	0.067048972	1.0665455	0.49238679	0.097259375	1.0155546	0.89394381	-0.078174732	1.0110816	0.90233381	0.2938602	1.0893157	0.977461	-0.019356428	1.1011659	0.98525898	0.2173324	0.93132132	1.0438409	0.10122272	1.1046718	1.4292513	-0.083771622	1.0991655	1.4520222	0.24795472	1.0284632	1.4890144	0.079971521	0.96863401	1.0816862	-0.11807227	0.94945536	1.1154512	0.3433229	1.1093033	0.85984373	-0.15734725	1.1313798	0.90389957	0.32811034
373	1.488	0.9286458	0.13526931	-0.0038670401	1.120167	0.039926667	0.12334196	0.86039154	0.27452887	-0.032529364	0.97397204	0.05878847	0.15564413	0.88772449	0.26181743	0.061965655	0.9850531	0.098405421	0.064745098	0.78627678	0.2995669	0.016879648	0.9034393	0.04275081	0.10582908	1.1848926	0.51622528	-0.059095933	1.0878848	0.50040711	0.2235686	1.1888686	0.50501857	0.066661367	1.067973	0.4926098	0.097419681	1.0221056	0.89512805	-0.077815716	1.0149387	0.90291678	0.29429096	1.0949581	0.9787419	-0.0192079	1.1065102	0.9860041	0.21751589	0.93671781	1.0445841	0.10130282	1.1093974	1.4302365	-0.083918686	1.1044651	1.453111	0.24790324	1.033398	1.490015	0.079990273	0.97283502	1.0830764	-0.11818179	0.9552618	1.1162243	0.34356873	1.1111989	0.86024904	-0.15858497	1.1382173	0.90561426	0.32725643
374	1.492	0.94734299	0.1323944	-0.0044601884	1.1202352	0.039891743	0.12330401	0.87504319	0.26935512	-0.032806972	0.97410934	0.059216732	0.15547495	0.90361293	0.25721646	0.06135712	0.98555487	0.098823409	0.064598239	0.79987684	0.2919435	0.0168427	0.90376824	0.043382546	0.10577145	1.1943218	0.51870636	-0.059182704	1.089181	0.5005052	0.22379672	1.1988462	0.50761868	0.066515656	1.0694289	0.4928848	0.097569372	1.0280652	0.89623824	-0.07779288	1.0198505	0.90356126	0.29433626	1.1006331	0.97993693	-0.019066358	1.1118472	0.98671764	0.21769783	0.94212088	1.0452768	0.1013493	1.1141169	1.4311448	-0.084036956	1.1098083	1.4541716	0.24775889	1.0382918	1.4909883	0.079960353	0.9770543	1.0843945	-0.11834351	0.96107758	1.1169355	0.34381406	1.113143	0.86063473	-0.15980492	1.145015	0.90724497	0.32641173
375	1.496	0.96614406	0.12947443	-0.0049521792	1.1202794	0.039832412	0.12327519	0.88983268	0.26396862	-0.033064655	0.97424375	0.059661676	0.15529972	0.91969127	0.25249605	0.060731209	0.98608938	0.099276295	0.064469847	0.81378002	0.28410278	0.016704889	0.90414113	0.044007197	0.10577721	1.2034711	0.52103194	-0.059313515	1.0904877	0.50060545	0.22395559	1.2094775	0.51022795	0.066555725	1.0709332	0.49323818	0.097739126	1.0333856	0.8972613	-0.078101448	1.0254217	0.90425414	0.29405372	1.106431	0.98104129	-0.018975616	1.1171774	0.98740655	0.21788468	0.9475432	1.0459241	0.10135512	1.1188372	1.4319821	-0.084135738	1.115239	1.4552238	0.24750564	1.0431976	1.4919138	0.079926397	0.98124766	1.0856498	-0.1184909	0.96688853	1.1175823	0.34405218	1.1151384	0.86100911	-0.16099766	1.151776	0.90879194	0.32558012
